<svg xmlns="http://www.w3.org/2000/svg" xmlns:xlink="http://www.w3.org/1999/xlink" width="1080" zoomAndPan="magnify" viewBox="0 0 810 809.999993" height="1080" preserveAspectRatio="xMidYMid meet" version="1.0"><defs><clipPath id="9c60a40431"><path d="M 311.585938 311.585938 L 498.335938 311.585938 L 498.335938 498.335938 L 311.585938 498.335938 Z M 311.585938 311.585938 " clip-rule="nonzero"/></clipPath></defs><g clip-path="url(#9c60a40431)"><path fill="#efe8ab" d="M 498.335938 404.960938 C 498.335938 406.488281 498.296875 408.015625 498.222656 409.542969 C 498.148438 411.070312 498.035156 412.59375 497.886719 414.113281 C 497.738281 415.632812 497.550781 417.152344 497.324219 418.664062 C 497.101562 420.171875 496.839844 421.679688 496.542969 423.179688 C 496.242188 424.675781 495.910156 426.167969 495.539062 427.648438 C 495.167969 429.132812 494.757812 430.605469 494.316406 432.066406 C 493.871094 433.527344 493.394531 434.980469 492.878906 436.417969 C 492.363281 437.855469 491.8125 439.28125 491.226562 440.695312 C 490.644531 442.105469 490.023438 443.503906 489.371094 444.882812 C 488.71875 446.265625 488.03125 447.628906 487.3125 448.976562 C 486.589844 450.324219 485.835938 451.65625 485.050781 452.964844 C 484.265625 454.277344 483.449219 455.566406 482.601562 456.835938 C 481.75 458.109375 480.871094 459.355469 479.960938 460.585938 C 479.050781 461.8125 478.109375 463.015625 477.140625 464.199219 C 476.171875 465.378906 475.171875 466.535156 474.148438 467.667969 C 473.121094 468.800781 472.066406 469.90625 470.988281 470.988281 C 469.90625 472.066406 468.800781 473.121094 467.667969 474.148438 C 466.535156 475.171875 465.378906 476.171875 464.199219 477.140625 C 463.015625 478.109375 461.8125 479.050781 460.585938 479.960938 C 459.355469 480.871094 458.109375 481.75 456.835938 482.601562 C 455.566406 483.449219 454.277344 484.265625 452.964844 485.050781 C 451.65625 485.835938 450.324219 486.589844 448.976562 487.3125 C 447.628906 488.03125 446.265625 488.71875 444.882812 489.371094 C 443.503906 490.023438 442.105469 490.644531 440.695312 491.226562 C 439.28125 491.8125 437.855469 492.363281 436.417969 492.878906 C 434.980469 493.394531 433.527344 493.871094 432.066406 494.316406 C 430.605469 494.757812 429.132812 495.167969 427.648438 495.539062 C 426.167969 495.910156 424.675781 496.242188 423.179688 496.542969 C 421.679688 496.839844 420.171875 497.101562 418.664062 497.324219 C 417.152344 497.550781 415.632812 497.738281 414.113281 497.886719 C 412.59375 498.035156 411.070312 498.148438 409.542969 498.222656 C 408.015625 498.296875 406.488281 498.335938 404.960938 498.335938 C 403.433594 498.335938 401.90625 498.296875 400.378906 498.222656 C 398.851562 498.148438 397.328125 498.035156 395.808594 497.886719 C 394.289062 497.738281 392.773438 497.550781 391.261719 497.324219 C 389.75 497.101562 388.242188 496.839844 386.746094 496.542969 C 385.246094 496.242188 383.753906 495.910156 382.273438 495.539062 C 380.789062 495.167969 379.316406 494.757812 377.855469 494.316406 C 376.394531 493.871094 374.941406 493.394531 373.503906 492.878906 C 372.066406 492.363281 370.640625 491.8125 369.226562 491.226562 C 367.816406 490.644531 366.417969 490.023438 365.039062 489.371094 C 363.65625 488.71875 362.292969 488.03125 360.945312 487.3125 C 359.597656 486.589844 358.269531 485.835938 356.957031 485.050781 C 355.644531 484.265625 354.355469 483.449219 353.085938 482.601562 C 351.8125 481.75 350.566406 480.871094 349.335938 479.960938 C 348.109375 479.050781 346.90625 478.109375 345.726562 477.140625 C 344.542969 476.171875 343.386719 475.171875 342.253906 474.148438 C 341.121094 473.121094 340.015625 472.066406 338.933594 470.988281 C 337.855469 469.90625 336.800781 468.800781 335.773438 467.667969 C 334.75 466.535156 333.75 465.378906 332.78125 464.199219 C 331.8125 463.015625 330.871094 461.8125 329.960938 460.585938 C 329.050781 459.355469 328.171875 458.109375 327.324219 456.835938 C 326.472656 455.566406 325.65625 454.277344 324.871094 452.964844 C 324.085938 451.65625 323.332031 450.324219 322.613281 448.976562 C 321.890625 447.628906 321.203125 446.265625 320.550781 444.882812 C 319.898438 443.503906 319.277344 442.105469 318.695312 440.695312 C 318.109375 439.28125 317.558594 437.855469 317.042969 436.417969 C 316.53125 434.980469 316.050781 433.527344 315.605469 432.066406 C 315.164062 430.605469 314.753906 429.132812 314.382812 427.648438 C 314.011719 426.167969 313.679688 424.675781 313.378906 423.179688 C 313.082031 421.679688 312.820312 420.171875 312.597656 418.664062 C 312.371094 417.152344 312.1875 415.632812 312.035156 414.113281 C 311.886719 412.59375 311.773438 411.070312 311.699219 409.542969 C 311.625 408.015625 311.585938 406.488281 311.585938 404.960938 C 311.585938 403.433594 311.625 401.90625 311.699219 400.378906 C 311.773438 398.851562 311.886719 397.328125 312.035156 395.808594 C 312.1875 394.289062 312.371094 392.773438 312.597656 391.261719 C 312.820312 389.75 313.082031 388.242188 313.378906 386.746094 C 313.679688 385.246094 314.011719 383.753906 314.382812 382.273438 C 314.753906 380.789062 315.164062 379.316406 315.605469 377.855469 C 316.050781 376.394531 316.53125 374.941406 317.042969 373.503906 C 317.558594 372.066406 318.109375 370.640625 318.695312 369.226562 C 319.277344 367.816406 319.898438 366.417969 320.550781 365.039062 C 321.203125 363.65625 321.890625 362.292969 322.613281 360.945312 C 323.332031 359.597656 324.085938 358.269531 324.871094 356.957031 C 325.65625 355.644531 326.472656 354.355469 327.324219 353.085938 C 328.171875 351.8125 329.050781 350.566406 329.960938 349.335938 C 330.871094 348.109375 331.8125 346.90625 332.78125 345.726562 C 333.75 344.542969 334.75 343.386719 335.773438 342.253906 C 336.800781 341.121094 337.855469 340.015625 338.933594 338.933594 C 340.015625 337.855469 341.121094 336.800781 342.253906 335.773438 C 343.386719 334.75 344.542969 333.75 345.726562 332.78125 C 346.90625 331.8125 348.109375 330.871094 349.335938 329.960938 C 350.566406 329.050781 351.8125 328.171875 353.085938 327.324219 C 354.355469 326.472656 355.644531 325.65625 356.957031 324.871094 C 358.269531 324.085938 359.597656 323.332031 360.945312 322.613281 C 362.292969 321.890625 363.65625 321.203125 365.039062 320.550781 C 366.417969 319.898438 367.816406 319.277344 369.226562 318.695312 C 370.640625 318.109375 372.066406 317.558594 373.503906 317.042969 C 374.941406 316.53125 376.394531 316.050781 377.855469 315.605469 C 379.316406 315.164062 380.789062 314.753906 382.273438 314.382812 C 383.753906 314.011719 385.246094 313.679688 386.746094 313.378906 C 388.242188 313.082031 389.75 312.820312 391.261719 312.597656 C 392.773438 312.371094 394.289062 312.1875 395.808594 312.035156 C 397.328125 311.886719 398.851562 311.773438 400.378906 311.699219 C 401.90625 311.625 403.433594 311.585938 404.960938 311.585938 C 406.488281 311.585938 408.015625 311.625 409.542969 311.699219 C 411.070312 311.773438 412.59375 311.886719 414.113281 312.035156 C 415.632812 312.1875 417.152344 312.371094 418.664062 312.597656 C 420.171875 312.820312 421.679688 313.082031 423.179688 313.378906 C 424.675781 313.679688 426.167969 314.011719 427.648438 314.382812 C 429.132812 314.753906 430.605469 315.164062 432.066406 315.605469 C 433.527344 316.050781 434.980469 316.53125 436.417969 317.042969 C 437.855469 317.558594 439.28125 318.109375 440.695312 318.695312 C 442.105469 319.277344 443.503906 319.898438 444.882812 320.550781 C 446.265625 321.203125 447.628906 321.890625 448.976562 322.613281 C 450.324219 323.332031 451.65625 324.085938 452.964844 324.871094 C 454.277344 325.65625 455.566406 326.472656 456.835938 327.324219 C 458.109375 328.171875 459.355469 329.050781 460.585938 329.960938 C 461.8125 330.871094 463.015625 331.8125 464.199219 332.78125 C 465.378906 333.75 466.535156 334.75 467.667969 335.773438 C 468.800781 336.800781 469.90625 337.855469 470.988281 338.933594 C 472.066406 340.015625 473.121094 341.121094 474.148438 342.253906 C 475.171875 343.386719 476.171875 344.542969 477.140625 345.726562 C 478.109375 346.90625 479.050781 348.109375 479.960938 349.335938 C 480.871094 350.566406 481.75 351.8125 482.601562 353.085938 C 483.449219 354.355469 484.265625 355.644531 485.050781 356.957031 C 485.835938 358.269531 486.589844 359.597656 487.3125 360.945312 C 488.03125 362.292969 488.71875 363.65625 489.371094 365.039062 C 490.023438 366.417969 490.644531 367.816406 491.226562 369.226562 C 491.8125 370.640625 492.363281 372.066406 492.878906 373.503906 C 493.394531 374.941406 493.871094 376.394531 494.316406 377.855469 C 494.757812 379.316406 495.167969 380.789062 495.539062 382.273438 C 495.910156 383.753906 496.242188 385.246094 496.542969 386.746094 C 496.839844 388.242188 497.101562 389.75 497.324219 391.261719 C 497.550781 392.773438 497.738281 394.289062 497.886719 395.808594 C 498.035156 397.328125 498.148438 398.851562 498.222656 400.378906 C 498.296875 401.90625 498.335938 403.433594 498.335938 404.960938 Z M 498.335938 404.960938 " fill-opacity="1" fill-rule="nonzero"/></g><path fill="#0f7e8f" d="M 432.136719 458.980469 L 377.789062 458.980469 C 374.394531 458.980469 371.625 456.207031 371.441406 452.707031 L 367.941406 382.675781 C 367.902344 382.019531 368.414062 381.472656 369.070312 381.433594 C 369.726562 381.398438 370.273438 381.910156 370.308594 382.566406 L 373.8125 452.597656 C 373.921875 454.859375 375.671875 456.644531 377.789062 456.644531 L 432.136719 456.644531 C 434.25 456.644531 436 454.894531 436.109375 452.597656 L 439.648438 382.566406 C 439.683594 381.910156 440.230469 381.433594 440.890625 381.433594 C 441.546875 381.472656 442.019531 382.019531 442.019531 382.675781 L 438.519531 452.707031 C 438.300781 456.207031 435.527344 458.980469 432.136719 458.980469 Z M 432.136719 458.980469 " fill-opacity="1" fill-rule="evenodd"/><path fill="#0f7e8f" d="M 367.539062 368.085938 C 366.007812 368.085938 364.800781 369.289062 364.800781 370.820312 L 364.800781 378.699219 C 364.800781 380.230469 366.007812 381.433594 367.539062 381.433594 L 442.347656 381.433594 C 443.878906 381.433594 445.082031 380.230469 445.082031 378.699219 L 445.082031 370.820312 C 445.082031 369.289062 443.878906 368.085938 442.347656 368.085938 Z M 442.347656 383.769531 L 367.539062 383.769531 C 364.730469 383.769531 362.433594 381.472656 362.433594 378.664062 L 362.433594 370.785156 C 362.433594 367.976562 364.730469 365.679688 367.539062 365.679688 L 442.347656 365.679688 C 445.15625 365.679688 447.453125 367.976562 447.453125 370.785156 L 447.453125 378.664062 C 447.453125 381.472656 445.15625 383.769531 442.347656 383.769531 Z M 442.347656 383.769531 " fill-opacity="1" fill-rule="evenodd"/><path fill="#0f7e8f" d="M 388.695312 448.4375 C 388.035156 448.4375 387.527344 447.929688 387.527344 447.308594 L 386.140625 393.179688 C 386.105469 392.523438 386.652344 391.976562 387.269531 391.976562 C 387.925781 391.941406 388.476562 392.488281 388.476562 393.105469 L 389.859375 447.234375 C 389.898438 447.890625 389.351562 448.4375 388.730469 448.4375 C 388.695312 448.4375 388.695312 448.4375 388.695312 448.4375 Z M 388.695312 448.4375 " fill-opacity="1" fill-rule="evenodd"/><path fill="#0f7e8f" d="M 404.960938 448.4375 C 404.304688 448.4375 403.792969 447.929688 403.792969 447.273438 L 403.792969 393.144531 C 403.792969 392.488281 404.304688 391.976562 404.960938 391.976562 C 405.617188 391.976562 406.128906 392.488281 406.128906 393.144531 L 406.128906 447.273438 C 406.128906 447.929688 405.652344 448.4375 404.960938 448.4375 Z M 404.960938 448.4375 " fill-opacity="1" fill-rule="evenodd"/><path fill="#0f7e8f" d="M 421.230469 448.4375 C 420.574219 448.402344 420.023438 447.890625 420.0625 447.234375 L 421.449219 393.105469 C 421.484375 392.449219 421.996094 391.941406 422.652344 391.976562 C 423.308594 392.011719 423.820312 392.523438 423.78125 393.179688 L 422.394531 447.308594 C 422.433594 447.929688 421.921875 448.4375 421.230469 448.4375 Z M 421.230469 448.4375 " fill-opacity="1" fill-rule="evenodd"/><path fill="#0f7e8f" d="M 420.792969 368.085938 C 420.132812 368.085938 419.625 367.574219 419.625 366.917969 L 419.625 353.3125 L 390.335938 353.3125 L 390.335938 366.917969 C 390.335938 367.574219 389.824219 368.085938 389.167969 368.085938 C 388.511719 368.085938 388 367.574219 388 366.917969 L 388 352.109375 C 388 351.453125 388.511719 350.941406 389.167969 350.941406 L 420.792969 350.941406 C 421.449219 350.941406 421.957031 351.453125 421.957031 352.109375 L 421.957031 366.882812 C 421.921875 367.539062 421.410156 368.085938 420.792969 368.085938 Z M 420.792969 368.085938 " fill-opacity="1" fill-rule="evenodd"/></svg>